<svg xmlns="http://www.w3.org/2000/svg" fill="currentColor" viewBox="0 0 24 24" stroke="currentColor" stroke-width="0">
  <path d="M22.675 0h-21.35c-0.734 0-1.325 0.591-1.325 1.325v21.351c0 0.733 0.591 1.324 1.325 1.324h11.495v-9.294h-3.123v-3.622h3.123v-2.672c0-3.1 1.892-4.788 4.657-4.788 1.325 0 2.462 0.099 2.794 0.143v3.24l-1.918 0.001c-1.505 0-1.796 0.715-1.796 1.762v2.31h3.591l-0.467 3.621h-3.124v9.293h6.116c0.733 0 1.324-0.591 1.324-1.324v-21.351c0-0.734-0.591-1.325-1.324-1.325z"></path>
</svg>
